<?xml version="1.0" encoding="UTF-8"?>
<svg xmlns="http://www.w3.org/2000/svg" style="stroke-dasharray:none; shape-rendering:auto; font-family:'Arial'; text-rendering:auto; fill-opacity:1; color-interpolation:auto; color-rendering:auto; font-size:12; fill:black; stroke:black; image-rendering:auto; stroke-miterlimit:10; stroke-linecap:square; stroke-linejoin:miter; font-style:normal; stroke-width:1; stroke-dashoffset:0; font-weight:normal; stroke-opacity:1;" contentScriptType="text/ecmascript" preserveAspectRatio="xMidYMid meet" zoomAndPan="magnify" version="1.0" contentStyleType="text/css" xml:xlink="http://www.w3.org/1999/xlink" width="1521" height="661"><rect x="60" y="409" width="1461" height="252" ry="0" rx="0" style="stroke:#000000; fill:#C0C7CC" /><g componentSequence="11"><text x="-535" y="67" transform="rotate(270)" text-anchor="middle" style="font-weight:bold;font-size:10px;stroke:none; fill:#434343"><tspan dy="14" x="-535">RH</tspan></text></g><rect x="60" y="220" width="1461" height="190" ry="0" rx="0" style="stroke:#000000; fill:#DFDFDF" /><g componentSequence="3"><text x="-315" y="67" transform="rotate(270)" text-anchor="middle" style="font-weight:bold;font-size:10px;stroke:none; fill:#434343"><tspan dy="14" x="-315">Usuário Fluig</tspan></text></g><rect x="60" y="0" width="1461" height="221" ry="0" rx="0" style="stroke:#000000; fill:#C0C7CC" /><g componentSequence="2"><text x="-110" y="67" transform="rotate(270)" text-anchor="middle" style="font-weight:bold;font-size:10px;stroke:none; fill:#434343"><tspan dy="14" x="-110">Gerente Área</tspan></text></g><g sequence="4"><ellipse cx="137" cy="344" rx="17" ry="17" stroke-width="1" style="fill:url(#linearGradient66FF6696FF96B6FFB6_2085544817);" stroke="336633" /></g><g sequence="5"><rect x="284" y="120" width="106" height="70" ry="5" rx="5" style="fill:url(#linearGradientF8FBFEEDF5FCDEEDFAD4E7F8E2E5E9_1921585800);" stroke="191970" /></g><g componentSequence="5"><text x="337" y="135" text-anchor="middle" style="font-weight:bold;font-size:10px;stroke:none; fill:#333399"><tspan dy="14" x="337">Aprovar</tspan><tspan dy="14" x="337">treinamento</tspan></text></g><g sequence="13"><polygon points=" 507 134 537 104 567 134 537 164 507 134" style="fill:url(#linearGradientFAFBFCFFFFCC_1991673857);" stroke="000000" /></g><g componentSequence="13"><text x="537" y="174" text-anchor="middle" style="font-weight:bold;font-size:10px;stroke:none; fill:#333399"><tspan dy="14" x="537">Aprovad</tspan><tspan dy="14" x="537">o?</tspan></text></g><g sequence="15"><rect x="485" y="470" width="106" height="70" ry="5" rx="5" style="fill:url(#linearGradientF8FBFEEDF5FCDEEDFAD4E7F8E2E5E9_867440819);" stroke="191970" /></g><g componentSequence="15"><text x="538" y="485" text-anchor="middle" style="font-weight:bold;font-size:10px;stroke:none; fill:#333399"><tspan dy="14" x="538">Aprovar</tspan><tspan dy="14" x="538">treinamento</tspan></text></g><g sequence="17"><rect x="670" y="283" width="106" height="70" ry="5" rx="5" style="fill:url(#linearGradientF8FBFEEDF5FCDEEDFAD4E7F8E2E5E9_954872031);" stroke="191970" /></g><g componentSequence="17"><text x="723" y="298" text-anchor="middle" style="font-weight:bold;font-size:10px;stroke:none; fill:#333399"><tspan dy="14" x="723">Atualizar</tspan><tspan dy="14" x="723">treinamento</tspan></text></g><g sequence="19"><polygon points=" 693 484 723 454 753 484 723 514 693 484" style="fill:url(#linearGradientFAFBFCFFFFCC_38627352);" stroke="000000" /></g><g componentSequence="19"><text x="723" y="524" text-anchor="middle" style="font-weight:bold;font-size:10px;stroke:none; fill:#333399"><tspan dy="14" x="723">Aprovad</tspan><tspan dy="14" x="723">o?</tspan></text></g><g sequence="28"><ellipse cx="337" cy="57" rx="17" ry="17" stroke-width="1" style="fill:url(#linearGradientFFFF66FFFF96FFFFB6_1090068176);" stroke="999900" /></g><g sequence="28"><polygon points=" 323 50 338 50 338 43 353 58 338 73 338 66 323 66" style="stroke:#999900; fill:none" /></g><g sequence="30"><ellipse cx="877" cy="317" rx="17" ry="17" stroke-width="1" style="fill:url(#linearGradientFFFF66FFFF96FFFFB6_1402726396);" stroke="999900" /></g><g sequence="30"><polygon points=" 863 310 878 310 878 303 893 318 878 333 878 326 863 326" style="stroke:none; fill:#999900" /></g><g sequence="41"><rect x="947" y="477" width="106" height="56" ry="5" rx="5" style="fill:url(#linearGradientF8FBFEEDF5FCDEEDFAD4E7F8E2E5E9_975063448);" stroke="191970" /></g><g componentSequence="41"><text x="1000" y="494" text-anchor="middle" style="font-weight:bold;font-size:10px;stroke:none; fill:#333399"><tspan dy="14" x="1000">Considerar</tspan></text></g><g sequence="43"><rect x="1050" y="276" width="106" height="84" ry="5" rx="5" style="fill:url(#linearGradientF8FBFEEDF5FCDEEDFAD4E7F8E2E5E9_1400568683);" stroke="191970" /></g><g componentSequence="43"><text x="1103" y="291" text-anchor="middle" style="font-weight:bold;font-size:10px;stroke:none; fill:#333399"><tspan dy="14" x="1103">Incluir</tspan><tspan dy="14" x="1103">informações</tspan><tspan dy="14" x="1103">financeiras</tspan></text></g><g sequence="45"><rect x="1254" y="470" width="106" height="70" ry="5" rx="5" style="fill:url(#linearGradientF8FBFEEDF5FCDEEDFAD4E7F8E2E5E9_1543336010);" stroke="191970" /></g><g componentSequence="45"><text x="1307" y="485" text-anchor="middle" style="font-weight:bold;font-size:10px;stroke:none; fill:#333399"><tspan dy="14" x="1307">Finalizar</tspan><tspan dy="14" x="1307">treinamento</tspan></text></g><g sequence="47"><ellipse cx="1476" cy="504" rx="17" ry="17" stroke-width="3" style="fill:url(#linearGradientFF6666FF9696FFB6B6_1473632462);" stroke="993333" /></g><g sequence="60"><ellipse cx="537" cy="37" rx="17" ry="17" stroke-width="3" style="fill:url(#linearGradientFF6666FF9696FFB6B6_533666085);" stroke="993333" /></g><g sequence="60"><polygon points=" 528 33 533 28 538 33 543 28 548 33 543 38 548 43 543 48 538 43 533 48 528 43 533 38" style="stroke:none; fill:#993333" /></g><g sequence="62"><ellipse cx="722" cy="617" rx="17" ry="17" stroke-width="3" style="fill:url(#linearGradientFF6666FF9696FFB6B6_459933716);" stroke="993333" /></g><g sequence="62"><polygon points=" 713 613 718 608 723 613 728 608 733 613 728 618 733 623 728 628 723 623 718 628 713 623 718 618" style="stroke:none; fill:#993333" /></g><g componentSequence="12"><text x="147" y="67" style="font-size:10px;font-weight:none;stroke:none; fill:#333399" text-anchor="left" /></g><g componentSequence="16"><text x="547" y="238" style="font-size:10px;font-weight:none;stroke:none; fill:#333399" text-anchor="left" /></g><g componentSequence="20"><text x="652" y="405" style="font-size:10px;font-weight:none;stroke:none; fill:#333399" text-anchor="left" /></g><g componentSequence="29"><text x="347" y="-3" style="font-size:10px;font-weight:none;stroke:none; fill:#333399" text-anchor="left" /></g><g componentSequence="44"><text x="1112" y="357" style="font-size:10px;font-weight:none;stroke:none; fill:#333399" text-anchor="left" /></g><g componentSequence="46"><text x="1317" y="218" style="font-size:10px;font-weight:none;stroke:none; fill:#333399" text-anchor="left" /></g><g componentSequence="48"><text x="1419" y="404" style="font-size:10px;font-weight:none;stroke:none; fill:#333399" text-anchor="left" /></g><g componentSequence="55"><text x="730" y="320" style="font-size:10px;font-weight:none;stroke:none; fill:#333399" text-anchor="left" /></g><g componentSequence="56"><text x="730" y="50" style="font-size:10px;font-weight:none;stroke:none; fill:#333399" text-anchor="left" /></g><g componentSequence="57"><text x="840" y="406" style="font-size:10px;font-weight:none;stroke:none; fill:#333399" text-anchor="left" /></g><g componentSequence="58"><text x="458" y="55" style="font-size:10px;font-weight:none;stroke:none; fill:#333399" text-anchor="left" /></g><g componentSequence="59"><text x="828" y="217" style="font-size:10px;font-weight:none;stroke:none; fill:#333399" text-anchor="left" /></g><g componentSequence="61"><text x="547" y="-21" style="font-size:10px;font-weight:none;stroke:none; fill:#333399" text-anchor="left" /></g><g componentSequence="63"><text x="732" y="478" style="font-size:10px;font-weight:none;stroke:none; fill:#333399" text-anchor="left" /></g><path style="fill:none; stroke:#000000;stroke-width:1" d="M137.0 326.0 L137.0 154.0 L283.0 154.0" /><polygon style="fill:#000000; stroke:#000000;" points=" 273 149 283 154 273 159 275 154" /><path style="fill:none; stroke:#000000;stroke-width:1" d="M390.0 155.0 L506.0 155.0" /><polygon style="fill:#000000; stroke:#000000;" points=" 496 150 506 155 496 160 498 155" /><path style="fill:none; stroke:#000000;stroke-width:1" d="M337.0 75.0 L337.0 119.0" /><polygon style="fill:#000000; stroke:#000000;" points=" 342 109 337 119 332 109 337 111" /><path style="fill:none; stroke:#000000;stroke-width:1" d="M537.0 206.0 L537.0 469.0" /><polygon style="fill:#000000; stroke:#000000;" points=" 542 459 537 469 532 459 537 461" /><path style="fill:none; stroke:#000000;stroke-width:1" d="M567.0 154.0 L723.0 154.0 L723.0 282.0" /><polygon style="fill:#000000; stroke:#000000;" points=" 728 272 723 282 718 272 723 274" /><path style="fill:none; stroke:#000000;stroke-width:1" d="M537.0 103.0 L537.0 55.0" /><polygon style="fill:#000000; stroke:#000000;" points=" 532 65 537 55 542 65 537 63" /><path style="fill:none; stroke:#000000;stroke-width:1" d="M591.0 505.0 L692.0 505.0" /><polygon style="fill:#000000; stroke:#000000;" points=" 682 500 692 505 682 510 684 505" /><path style="fill:none; stroke:#000000;stroke-width:1" d="M776.0 317.0 L860.0 317.0" /><polygon style="fill:#000000; stroke:#000000;" points=" 850 312 860 317 850 322 852 317" /><path style="fill:none; stroke:#000000;stroke-width:1" d="M723.0 453.0 L723.0 353.0" /><polygon style="fill:#000000; stroke:#000000;" points=" 718 363 723 353 728 363 723 361" /><path style="fill:none; stroke:#000000;stroke-width:1" d="M753.0 505.0 L946.0 505.0" /><polygon style="fill:#000000; stroke:#000000;" points=" 936 500 946 505 936 510 938 505" /><path style="fill:none; stroke:#000000;stroke-width:1" d="M722.0 556.0 L722.0 600.0" /><polygon style="fill:#000000; stroke:#000000;" points=" 727 590 722 600 717 590 722 592" /><path style="fill:none; stroke:#000000;stroke-width:1" d="M1053.0 504.0 L1102.0 504.0 L1102.0 360.0" /><polygon style="fill:#000000; stroke:#000000;" points=" 1097 370 1102 360 1107 370 1102 368" /><path style="fill:none; stroke:#000000;stroke-width:1" d="M1156.0 318.0 L1307.0 318.0 L1307.0 469.0" /><polygon style="fill:#000000; stroke:#000000;" points=" 1312 459 1307 469 1302 459 1307 461" /><path style="fill:none; stroke:#000000;stroke-width:1" d="M1360.0 504.0 L1459.0 504.0" /><polygon style="fill:#000000; stroke:#000000;" points=" 1449 499 1459 504 1449 509 1451 504" /><defs><linearGradient xmlns:xlink="http://www.w3.org/1999/xlink" xlink:href="#linearGradient66FF6696FF96B6FFB6" id="linearGradient66FF6696FF96B6FFB6_2085544817" x1="0" y1="327.0" x2="0" y2="362.0" gradientUnits="userSpaceOnUse" xlink:type="simple" xlink:actuate="onLoad" xlink:show="other" /><linearGradient id="linearGradient66FF6696FF96B6FFB6"><stop style="stop-color:#66FF66;stop-opacity:1;" offset="0.0" id="stop66FF66" /><stop style="stop-color:#96FF96;stop-opacity:1;" offset="0.5" id="stop96FF96" /><stop style="stop-color:#B6FFB6;stop-opacity:1;" offset="1.0" id="stopB6FFB6" /></linearGradient><linearGradient xmlns:xlink="http://www.w3.org/1999/xlink" xlink:href="#linearGradientF8FBFEEDF5FCDEEDFAD4E7F8E2E5E9" id="linearGradientF8FBFEEDF5FCDEEDFAD4E7F8E2E5E9_1921585800" x1="0" y1="120.0" x2="0" y2="226.0" gradientUnits="userSpaceOnUse" xlink:type="simple" xlink:actuate="onLoad" xlink:show="other" /><linearGradient id="linearGradientF8FBFEEDF5FCDEEDFAD4E7F8E2E5E9"><stop style="stop-color:#F8FBFE;stop-opacity:1;" offset="0.0" id="stopF8FBFE" /><stop style="stop-color:#EDF5FC;stop-opacity:1;" offset="0.25" id="stopEDF5FC" /><stop style="stop-color:#DEEDFA;stop-opacity:1;" offset="0.5" id="stopDEEDFA" /><stop style="stop-color:#D4E7F8;stop-opacity:1;" offset="0.75" id="stopD4E7F8" /><stop style="stop-color:#E2E5E9;stop-opacity:1;" offset="1.0" id="stopE2E5E9" /></linearGradient><linearGradient xmlns:xlink="http://www.w3.org/1999/xlink" xlink:href="#linearGradientFAFBFCFFFFCC" id="linearGradientFAFBFCFFFFCC_1991673857" x1="0" y1="104.0" x2="0" y2="164.0" gradientUnits="userSpaceOnUse" xlink:type="simple" xlink:actuate="onLoad" xlink:show="other" /><linearGradient id="linearGradientFAFBFCFFFFCC"><stop style="stop-color:#FAFBFC;stop-opacity:1;" offset="0.0" id="stopFAFBFC" /><stop style="stop-color:#FFFFCC;stop-opacity:1;" offset="1.0" id="stopFFFFCC" /></linearGradient><linearGradient xmlns:xlink="http://www.w3.org/1999/xlink" xlink:href="#linearGradientF8FBFEEDF5FCDEEDFAD4E7F8E2E5E9" id="linearGradientF8FBFEEDF5FCDEEDFAD4E7F8E2E5E9_867440819" x1="0" y1="470.0" x2="0" y2="576.0" gradientUnits="userSpaceOnUse" xlink:type="simple" xlink:actuate="onLoad" xlink:show="other" /><linearGradient xmlns:xlink="http://www.w3.org/1999/xlink" xlink:href="#linearGradientF8FBFEEDF5FCDEEDFAD4E7F8E2E5E9" id="linearGradientF8FBFEEDF5FCDEEDFAD4E7F8E2E5E9_954872031" x1="0" y1="283.0" x2="0" y2="389.0" gradientUnits="userSpaceOnUse" xlink:type="simple" xlink:actuate="onLoad" xlink:show="other" /><linearGradient xmlns:xlink="http://www.w3.org/1999/xlink" xlink:href="#linearGradientFAFBFCFFFFCC" id="linearGradientFAFBFCFFFFCC_38627352" x1="0" y1="454.0" x2="0" y2="514.0" gradientUnits="userSpaceOnUse" xlink:type="simple" xlink:actuate="onLoad" xlink:show="other" /><linearGradient xmlns:xlink="http://www.w3.org/1999/xlink" xlink:href="#linearGradientFFFF66FFFF96FFFFB6" id="linearGradientFFFF66FFFF96FFFFB6_1090068176" x1="0" y1="40.0" x2="0" y2="75.0" gradientUnits="userSpaceOnUse" xlink:type="simple" xlink:actuate="onLoad" xlink:show="other" /><linearGradient id="linearGradientFFFF66FFFF96FFFFB6"><stop style="stop-color:#FFFF66;stop-opacity:1;" offset="0.0" id="stopFFFF66" /><stop style="stop-color:#FFFF96;stop-opacity:1;" offset="0.5" id="stopFFFF96" /><stop style="stop-color:#FFFFB6;stop-opacity:1;" offset="1.0" id="stopFFFFB6" /></linearGradient><linearGradient xmlns:xlink="http://www.w3.org/1999/xlink" xlink:href="#linearGradientFFFF66FFFF96FFFFB6" id="linearGradientFFFF66FFFF96FFFFB6_1402726396" x1="0" y1="300.0" x2="0" y2="335.0" gradientUnits="userSpaceOnUse" xlink:type="simple" xlink:actuate="onLoad" xlink:show="other" /><linearGradient xmlns:xlink="http://www.w3.org/1999/xlink" xlink:href="#linearGradientF8FBFEEDF5FCDEEDFAD4E7F8E2E5E9" id="linearGradientF8FBFEEDF5FCDEEDFAD4E7F8E2E5E9_975063448" x1="0" y1="477.0" x2="0" y2="583.0" gradientUnits="userSpaceOnUse" xlink:type="simple" xlink:actuate="onLoad" xlink:show="other" /><linearGradient xmlns:xlink="http://www.w3.org/1999/xlink" xlink:href="#linearGradientF8FBFEEDF5FCDEEDFAD4E7F8E2E5E9" id="linearGradientF8FBFEEDF5FCDEEDFAD4E7F8E2E5E9_1400568683" x1="0" y1="276.0" x2="0" y2="382.0" gradientUnits="userSpaceOnUse" xlink:type="simple" xlink:actuate="onLoad" xlink:show="other" /><linearGradient xmlns:xlink="http://www.w3.org/1999/xlink" xlink:href="#linearGradientF8FBFEEDF5FCDEEDFAD4E7F8E2E5E9" id="linearGradientF8FBFEEDF5FCDEEDFAD4E7F8E2E5E9_1543336010" x1="0" y1="470.0" x2="0" y2="576.0" gradientUnits="userSpaceOnUse" xlink:type="simple" xlink:actuate="onLoad" xlink:show="other" /><linearGradient xmlns:xlink="http://www.w3.org/1999/xlink" xlink:href="#linearGradientFF6666FF9696FFB6B6" id="linearGradientFF6666FF9696FFB6B6_1473632462" x1="0" y1="487.0" x2="0" y2="522.0" gradientUnits="userSpaceOnUse" xlink:type="simple" xlink:actuate="onLoad" xlink:show="other" /><linearGradient id="linearGradientFF6666FF9696FFB6B6"><stop style="stop-color:#FF6666;stop-opacity:1;" offset="0.0" id="stopFF6666" /><stop style="stop-color:#FF9696;stop-opacity:1;" offset="0.5" id="stopFF9696" /><stop style="stop-color:#FFB6B6;stop-opacity:1;" offset="1.0" id="stopFFB6B6" /></linearGradient><linearGradient xmlns:xlink="http://www.w3.org/1999/xlink" xlink:href="#linearGradientFF6666FF9696FFB6B6" id="linearGradientFF6666FF9696FFB6B6_533666085" x1="0" y1="20.0" x2="0" y2="55.0" gradientUnits="userSpaceOnUse" xlink:type="simple" xlink:actuate="onLoad" xlink:show="other" /><linearGradient xmlns:xlink="http://www.w3.org/1999/xlink" xlink:href="#linearGradientFF6666FF9696FFB6B6" id="linearGradientFF6666FF9696FFB6B6_459933716" x1="0" y1="600.0" x2="0" y2="635.0" gradientUnits="userSpaceOnUse" xlink:type="simple" xlink:actuate="onLoad" xlink:show="other" /></defs></svg>
